<svg width="680" height="520" viewBox="0 0 680 520" fill="none" xmlns="http://www.w3.org/2000/svg" role="img" aria-label="温柔的妈妈和宝宝居家日常插画">
  <rect width="680" height="520" rx="32" fill="#F7F0E4"/>
  <path d="M84 390C118 330 182 296 252 312C298 323 339 354 385 344C437 333 457 279 514 272C569 265 612 305 635 357V475H84V390Z" fill="#E6F0EA"/>
  <circle cx="250" cy="145" r="72" fill="#F2C9A5"/>
  <path d="M185 187C200 130 256 97 312 111C354 121 387 152 398 194C358 219 317 229 273 224C238 221 208 208 185 187Z" fill="#7F9B82"/>
  <path d="M226 144C230 134 237 129 247 127" stroke="#2F332F" stroke-width="7" stroke-linecap="round"/>
  <path d="M289 146C298 139 307 139 316 146" stroke="#2F332F" stroke-width="7" stroke-linecap="round"/>
  <path d="M255 178C274 190 293 190 312 178" stroke="#2F332F" stroke-width="7" stroke-linecap="round"/>
  <path d="M169 381C181 305 229 251 295 247C371 243 428 305 439 382H169Z" fill="#FFF8EC"/>
  <path d="M248 250C264 283 309 285 328 251" stroke="#7F9B82" stroke-width="12" stroke-linecap="round"/>
  <circle cx="443" cy="266" r="46" fill="#F4D8BF"/>
  <path d="M398 323C408 290 434 270 467 273C507 277 535 310 540 356H399C397 344 397 333 398 323Z" fill="#BFD2C4"/>
  <path d="M428 263C438 251 456 250 468 262" stroke="#2F332F" stroke-width="6" stroke-linecap="round"/>
  <path d="M214 398H510" stroke="#D7C8B7" stroke-width="16" stroke-linecap="round"/>
  <rect x="110" y="322" width="78" height="68" rx="14" fill="#FFFFFF" stroke="#D7C8B7" stroke-width="8"/>
  <path d="M129 350H168" stroke="#7F9B82" stroke-width="8" stroke-linecap="round"/>
  <path d="M149 331V373" stroke="#7F9B82" stroke-width="8" stroke-linecap="round"/>
  <rect x="520" y="348" width="78" height="48" rx="12" fill="#FFFFFF" stroke="#D7C8B7" stroke-width="8"/>
  <circle cx="552" cy="372" r="9" fill="#7F9B82"/>
  <circle cx="575" cy="372" r="9" fill="#F2C9A5"/>
  <path d="M280 407C302 431 345 431 367 407" stroke="#7F9B82" stroke-width="10" stroke-linecap="round"/>
  <path d="M92 114C112 82 145 68 181 79" stroke="#D7C8B7" stroke-width="12" stroke-linecap="round"/>
  <path d="M504 96C538 69 581 67 616 90" stroke="#D7C8B7" stroke-width="12" stroke-linecap="round"/>
  <circle cx="126" cy="132" r="14" fill="#BFD2C4"/>
  <circle cx="587" cy="127" r="14" fill="#F2C9A5"/>
</svg>
